<svg id="Group_163875" data-name="Group 163875" xmlns="http://www.w3.org/2000/svg" width="116.2" height="65.024" viewBox="0 0 116.2 65.024">
  <g id="Group_163872" data-name="Group 163872" transform="translate(0 0)">
    <path id="Path_84764" data-name="Path 84764" d="M22.717,53.15c-.243-.27-.458-.487-.61-.636l-.178-.173-.059-.063s-.073.092-.175.253a7.079,7.079,0,0,0-.385.679,6.451,6.451,0,0,0-.678,2.259,3.545,3.545,0,0,0,.13,1.339,4.088,4.088,0,0,0,.638,1.32c.076.106.159.21.247.312a3.736,3.736,0,0,0,.311.286,5.434,5.434,0,0,0,.745.524,7.453,7.453,0,0,0,2.005.79,2.047,2.047,0,0,0,1.05-2.287,4.167,4.167,0,0,0-.513-1.265c-.061-.105-.127-.209-.195-.314s-.121-.215-.186-.32q-.2-.319-.42-.624a14.019,14.019,0,0,0-.929-1.129c-.277-.362-.552-.684-.8-.952" transform="translate(7.836 1.157)" fill="#fff"/>
    <path id="Path_84765" data-name="Path 84765" d="M20.08,51.514l-.1-.314a8.984,8.984,0,0,0-.483-1.172c-.086-.178-.185-.345-.262-.509s-.141-.321-.207-.462a9,9,0,0,0-.5-.916,9.674,9.674,0,0,0-.841.825,9.375,9.375,0,0,0-.741.922,5.314,5.314,0,0,0-.643,1.153,4.42,4.42,0,0,0-.3,1.284,3.263,3.263,0,0,0,.012.666,2.122,2.122,0,0,0,.059.333,2.837,2.837,0,0,0,.121.318,3.545,3.545,0,0,0,.9,1.2,3.8,3.8,0,0,0,.73.517,6.856,6.856,0,0,0,.976.415,2.428,2.428,0,0,0,1.633-2.059,3.691,3.691,0,0,0-.063-1.263,5.265,5.265,0,0,0-.177-.631c-.036-.1-.073-.207-.115-.31" transform="translate(6.08 1.065)" fill="#fff"/>
    <path id="Path_84766" data-name="Path 84766" d="M13.226,50.582a5.044,5.044,0,0,0,.78.5,3.225,3.225,0,0,0,2.236-1.775c.076-.185.156-.384.219-.587a4.362,4.362,0,0,0,.137-.614,5.95,5.95,0,0,0,.039-1.231,7.438,7.438,0,0,0-.061-1.172c-.044-.363-.123-.689-.142-.98a6.7,6.7,0,0,0-.175-.938,12.585,12.585,0,0,0-1.067.7,12.819,12.819,0,0,0-1.009.8c-.173.154-.359.321-.516.491s-.315.35-.457.535a5.572,5.572,0,0,0-.723,1.19,3.911,3.911,0,0,0-.215.637,2.633,2.633,0,0,0-.025.634,2.563,2.563,0,0,0,.438,1.244,2.223,2.223,0,0,0,.542.564" transform="translate(4.652 0.969)" fill="#fff"/>
    <path id="Path_84767" data-name="Path 84767" d="M9.726,45.385a3.684,3.684,0,0,0,.571.564,4.2,4.2,0,0,0,2.716-1.44c.072-.085.137-.173.2-.261s.132-.182.2-.276a5.448,5.448,0,0,0,.326-.576,6.038,6.038,0,0,0,.426-1.182,8.745,8.745,0,0,0,.294-1.144c.035-.18.059-.352.081-.514A4.464,4.464,0,0,1,14.6,40.1a6.762,6.762,0,0,0,.1-.943s-.507.207-1.223.58c-.359.187-.77.414-1.2.679a10.535,10.535,0,0,0-1.223.888,7.6,7.6,0,0,0-1.056,1.069,3.694,3.694,0,0,0-.395.587,3.208,3.208,0,0,0-.228.6,2.243,2.243,0,0,0,.011,1.23,1.751,1.751,0,0,0,.33.6" transform="translate(3.537 0.866)" fill="#fff"/>
    <path id="Path_84768" data-name="Path 84768" d="M11.351,39a7.259,7.259,0,0,0,1-1.01,7.574,7.574,0,0,0,.731-1.114,11.359,11.359,0,0,0,.936-2.047c.217-.557.322-.926.322-.926s-.538.166-1.314.474c-.382.153-.846.345-1.3.566a15.491,15.491,0,0,0-1.386.765,6.214,6.214,0,0,0-2.192,2.027,2.376,2.376,0,0,0-.334,1.183,2.038,2.038,0,0,0,.526,1.2A4.994,4.994,0,0,0,11.351,39" transform="translate(2.971 0.75)" fill="#fff"/>
    <path id="Path_84769" data-name="Path 84769" d="M10.075,33.974a6.331,6.331,0,0,0,.6-.428c.2-.151.391-.315.569-.48a8.8,8.8,0,0,0,.951-1.045c.139-.178.265-.352.388-.529s.247-.358.357-.532c.219-.343.4-.666.545-.942.279-.555.44-.917.44-.917s-.549.137-1.337.406a21.727,21.727,0,0,0-2.81,1.174,12.007,12.007,0,0,0-1.416.844,5.893,5.893,0,0,0-1.086.985A2.557,2.557,0,0,0,6.7,33.621a1.85,1.85,0,0,0,.224,1.192,5.48,5.48,0,0,0,3.152-.839" transform="translate(2.538 0.644)" fill="#fff"/>
    <path id="Path_84770" data-name="Path 84770" d="M6.484,29.163a5.585,5.585,0,0,0,3.166-.655,7.566,7.566,0,0,0,1.246-.835,9.786,9.786,0,0,0,1.07-.965c.323-.328.584-.667.853-.968s.486-.588.664-.832.315-.448.409-.591l.149-.22-.374.071c-.243.045-.571.121-.969.22a21.922,21.922,0,0,0-2.879.938c-.258.106-.515.221-.766.341s-.479.252-.705.39a6.571,6.571,0,0,0-1.191.9,2.012,2.012,0,0,0-.672,2.208" transform="translate(2.423 0.533)" fill="#fff"/>
    <path id="Path_84771" data-name="Path 84771" d="M10.252,22.533a12.054,12.054,0,0,0,2.524-1.508c.181-.138.346-.28.513-.418s.342-.265.5-.394c.311-.257.574-.5.792-.706s.4-.375.529-.493l.2-.185s-.54.034-1.359.143a20.084,20.084,0,0,0-2.941.628,12.746,12.746,0,0,0-1.573.565,7.226,7.226,0,0,0-1.3.765,4.211,4.211,0,0,0-.507.45,1.8,1.8,0,0,0-.355.494,1.685,1.685,0,0,0-.156,1.1,5.885,5.885,0,0,0,3.139-.446" transform="translate(2.692 0.417)" fill="#fff"/>
    <path id="Path_84772" data-name="Path 84772" d="M16.9,14.346c-.4.006-.878.026-1.4.062s-1.048.1-1.605.193a15.372,15.372,0,0,0-1.658.358c-.272.077-.537.158-.795.251a6.043,6.043,0,0,0-.7.313c-.863.457-1.564,1.052-1.594,1.809a6.021,6.021,0,0,0,3.083-.086,13.065,13.065,0,0,0,2.851-1.113,22.7,22.7,0,0,0,2.208-1.214c.584-.332.926-.566.926-.566s-.518-.025-1.325-.007" transform="translate(3.479 0.317)" fill="#fff"/>
    <path id="Path_84773" data-name="Path 84773" d="M20.8,10.028a22.959,22.959,0,0,0-2.952-.011,13.659,13.659,0,0,0-3.3.57,3.586,3.586,0,0,0-2.109,1.537,4.408,4.408,0,0,0,1.409.324A7.683,7.683,0,0,0,15.4,12.4a12.284,12.284,0,0,0,1.569-.315c.515-.137,1-.3,1.515-.463,1-.331,1.856-.706,2.511-.991s1.075-.486,1.075-.486-.5-.062-1.277-.112" transform="translate(4.728 0.221)" fill="#fff"/>
    <path id="Path_84774" data-name="Path 84774" d="M18.517,6.053A3.584,3.584,0,0,0,16.429,7.53c1.641.733,3.991.187,5.87-.5A26.292,26.292,0,0,0,24.776,6c.631-.3,1.014-.513,1.014-.513A26.033,26.033,0,0,0,21.7,5.466a12.854,12.854,0,0,0-3.183.587" transform="translate(6.246 0.119)" fill="#fff"/>
    <path id="Path_84786" data-name="Path 84786" d="M39.531,64.214a77.484,77.484,0,0,1-9.182-2.545,43.088,43.088,0,0,1-17.117-13.26A27.269,27.269,0,0,1,8.458,37.253a30.126,30.126,0,0,1-.821-10.19C8.881,17.681,17.209,9.5,28.122,2.727a29.552,29.552,0,0,0-4.319,2.1h0a2.636,2.636,0,0,0,.265-.375,4.129,4.129,0,0,0,.522-1.988A7,7,0,0,0,24.121,0s-.362.287-.849.739a12.985,12.985,0,0,0-1.6,1.733c-.958,1.359-1.419,2.858.293,3.572C20.239,7.2,18.659,8.3,17.215,9.418c.021-.047.039-.094.055-.143a3.937,3.937,0,0,0,.13-2.113,9.259,9.259,0,0,0-.534-1.788,6.982,6.982,0,0,0-.363-.756s-.341.324-.794.828a11.03,11.03,0,0,0-1.343,1.973,4,4,0,0,0-.413,1.141,2.727,2.727,0,0,0-.028,1.079,1.66,1.66,0,0,0,.48.886,2.434,2.434,0,0,0,.832.5,31.814,31.814,0,0,0-3.37,3.35c-.006-.066-.014-.133-.019-.2a3.715,3.715,0,0,0-.1-.552,6.089,6.089,0,0,0-.4-1.089c-.166-.351-.371-.7-.544-1s-.356-.579-.518-.812c-.322-.466-.571-.757-.571-.757s-.275.38-.609.962a9.029,9.029,0,0,0-.814,2.222,3.836,3.836,0,0,0,.284,2.35,2.675,2.675,0,0,0,1.533,1.175,26.292,26.292,0,0,0-1.913,3.324c-.075-.138-.159-.271-.25-.406a8.916,8.916,0,0,0-.789-1.049,19.013,19.013,0,0,0-1.746-1.715c-.487-.435-.843-.7-.843-.7s-.033.106-.094.291a4.062,4.062,0,0,0-.174.771c-.046.319-.084.693-.1,1.094-.007.2-.008.406,0,.614a5.93,5.93,0,0,0,.092.634,4.274,4.274,0,0,0,1.134,2.32,3.607,3.607,0,0,0,1.618.935,22.19,22.19,0,0,0-.8,3.13c-.043-.048-.088-.1-.135-.141-.171-.173-.359-.34-.548-.5s-.374-.324-.57-.479a21.1,21.1,0,0,0-2.288-1.536c-.327-.191-.609-.343-.795-.451l-.3-.163a2.658,2.658,0,0,0,0,.3c.015.185.037.451.081.77s.109.69.206,1.083a6.567,6.567,0,0,0,.447,1.219,7.123,7.123,0,0,0,.7,1.2,5.388,5.388,0,0,0,1.023,1.015,4.547,4.547,0,0,0,1.837.824,26.468,26.468,0,0,0,.059,3.291c-.15-.145-.311-.288-.478-.428a12.255,12.255,0,0,0-1.295-.938,22.576,22.576,0,0,0-2.625-1.406C.81,29.23.313,29.029.313,29.029a6.219,6.219,0,0,0,.265,1.047c.1.311.235.672.4,1.057.083.193.174.391.277.593s.229.415.359.622a8.56,8.56,0,0,0,.907,1.207,6.714,6.714,0,0,0,.548.539,6.711,6.711,0,0,0,.65.471,5.138,5.138,0,0,0,2.614.811,39.052,39.052,0,0,0,.908,3.877c-.032-.036-.062-.069-.1-.1A12.886,12.886,0,0,0,4.32,37.232c-.53-.277-1.071-.529-1.582-.754s-.966-.422-1.375-.581C.553,35.572,0,35.389,0,35.389A9.409,9.409,0,0,0,.436,36.5,12.973,12.973,0,0,0,1.97,38.86a11.06,11.06,0,0,0,1.224,1.192,6.873,6.873,0,0,0,1.463.959,5.818,5.818,0,0,0,3.332.58c.055.164.113.325.171.486a24.825,24.825,0,0,0,1.506,3.4c-.11-.085-.226-.169-.345-.25-.243-.167-.508-.324-.784-.476s-.54-.3-.829-.446c-.574-.286-1.191-.549-1.811-.786s-1.257-.455-1.815-.648-1.1-.356-1.551-.492C1.615,42.106,1,41.957,1,41.957s.262.46.734,1.124A12.357,12.357,0,0,0,2.684,44.2a16.107,16.107,0,0,0,1.266,1.22A14.909,14.909,0,0,0,5.565,46.54c.283.169.571.326.865.468q.222.106.443.2c.16.062.317.121.473.173a6.374,6.374,0,0,0,3.609.242,27.345,27.345,0,0,0,2.934,3.65c-.178-.1-.363-.194-.558-.282-.305-.14-.629-.271-.961-.4-.315-.129-.646-.248-.985-.364-.675-.228-1.391-.427-2.1-.606-.356-.087-.711-.17-1.06-.249l-.988-.223c-.635-.139-1.23-.256-1.738-.349-1.02-.187-1.7-.28-1.7-.28s.417.451,1.119,1.094a12.668,12.668,0,0,0,1.33,1.051c.518.373,1.093.757,1.7,1.121a19.128,19.128,0,0,0,2.03.965c.346.141.7.268,1.045.379a8.291,8.291,0,0,0,1.057.276,6.526,6.526,0,0,0,3.8-.206c1.1,1.012,2.254,2.033,3.479,3.031l-.15-.047c-.181-.053-.363-.1-.549-.148s-.357-.1-.542-.143c-.366-.092-.744-.173-1.128-.249-.766-.147-1.562-.265-2.346-.36-.8-.089-1.525-.181-2.225-.245s-1.34-.115-1.891-.153c-1.1-.074-1.822-.091-1.822-.091s.587.412,1.532.981c.236.142.494.3.77.453s.607.308.934.466c.661.314,1.383.633,2.131.928.189.073.373.146.569.214s.4.128.6.189c.4.122.807.234,1.208.331a15.906,15.906,0,0,0,2.348.415,6.9,6.9,0,0,0,3.323-.426c1,.719,2.051,1.41,3.141,2.063-.33-.036-.665-.068-1-.093-.825-.061-1.693-.071-2.484-.1-1.605-.037-3.145.014-4.285.073-.571.029-1.039.061-1.364.085l-.5.037.126.063c.083.042.214.1.377.167.326.143.8.342,1.375.568s1.253.486,2,.741c.767.236,1.6.467,2.458.673.426.1.861.2,1.289.282.218.044.433.083.649.122s.442.061.657.088a18.676,18.676,0,0,0,2.513.141,7.185,7.185,0,0,0,2.742-.509q.611.265,1.241.51a.461.461,0,0,0,.222.041,37.57,37.57,0,0,0,6.309,1.72" fill="#fff"/>
  </g>
  <g id="Group_163874" data-name="Group 163874" transform="translate(21.255 21.162)">
    <g id="Component_31_1" data-name="Component 31 – 1" transform="translate(7.65 -5.132)">
      <path id="Path_84787" data-name="Path 84787" d="M15.108,7.352,15.236,8h.8V4.912h-2.4v.936H14.9a1.373,1.373,0,0,1-.4.916,1.364,1.364,0,0,1-.964.316,1.466,1.466,0,0,1-.72-.164,1.374,1.374,0,0,1-.48-.436,1.892,1.892,0,0,1-.268-.612,2.908,2.908,0,0,1-.084-.7,3.126,3.126,0,0,1,.084-.728,1.928,1.928,0,0,1,.268-.628,1.359,1.359,0,0,1,.48-.44,1.466,1.466,0,0,1,.72-.164,1.256,1.256,0,0,1,.776.24,1.2,1.2,0,0,1,.432.72h1.2a2.1,2.1,0,0,0-.812-1.5,2.414,2.414,0,0,0-.744-.388,2.775,2.775,0,0,0-.852-.132,2.885,2.885,0,0,0-1.18.232,2.524,2.524,0,0,0-.884.64,2.854,2.854,0,0,0-.552.956,3.569,3.569,0,0,0-.192,1.188,3.45,3.45,0,0,0,.192,1.164,2.78,2.78,0,0,0,.552.94,2.528,2.528,0,0,0,.884.628,2.929,2.929,0,0,0,1.18.228,2.1,2.1,0,0,0,.824-.172A1.882,1.882,0,0,0,15.108,7.352ZM17.94,5.936a2.482,2.482,0,0,1,.048-.488,1.245,1.245,0,0,1,.164-.424.874.874,0,0,1,.788-.416.936.936,0,0,1,.484.116.91.91,0,0,1,.312.3,1.245,1.245,0,0,1,.164.424,2.482,2.482,0,0,1,.048.488,2.422,2.422,0,0,1-.048.484,1.289,1.289,0,0,1-.164.424.864.864,0,0,1-.312.3.963.963,0,0,1-.484.112.94.94,0,0,1-.48-.112.873.873,0,0,1-.308-.3,1.289,1.289,0,0,1-.164-.424A2.422,2.422,0,0,1,17.94,5.936Zm-1.136,0a2.506,2.506,0,0,0,.152.9,1.944,1.944,0,0,0,.432.684,1.89,1.89,0,0,0,.672.436,2.418,2.418,0,0,0,.88.152,2.45,2.45,0,0,0,.884-.152,1.883,1.883,0,0,0,.676-.436,1.944,1.944,0,0,0,.432-.684,2.506,2.506,0,0,0,.152-.9,2.539,2.539,0,0,0-.152-.9,1.884,1.884,0,0,0-1.108-1.128,2.394,2.394,0,0,0-.884-.156,2.362,2.362,0,0,0-.88.156,1.891,1.891,0,0,0-1.1,1.128A2.539,2.539,0,0,0,16.8,5.936ZM24.108,8l1.4-4.136H24.38l-.872,2.824h-.016L22.62,3.864H21.428L22.844,8ZM27.42,3.864V2.624H26.284v1.24H25.6v.76h.688v2.44a1.057,1.057,0,0,0,.1.5.741.741,0,0,0,.284.3,1.179,1.179,0,0,0,.416.14,3.316,3.316,0,0,0,.5.036q.168,0,.344-.008A2.7,2.7,0,0,0,28.252,8V7.12a1.591,1.591,0,0,1-.168.024q-.088.008-.184.008a.556.556,0,0,1-.384-.1.556.556,0,0,1-.1-.384V4.624h.832v-.76Zm1.424,2.9V8H30.1V6.768Zm5.528-1.6a3.126,3.126,0,0,1,.084-.728,1.928,1.928,0,0,1,.268-.628,1.36,1.36,0,0,1,.48-.44,1.662,1.662,0,0,1,1.44,0,1.36,1.36,0,0,1,.48.44,1.928,1.928,0,0,1,.268.628,3.126,3.126,0,0,1,.084.728,2.908,2.908,0,0,1-.084.7,1.892,1.892,0,0,1-.268.612,1.374,1.374,0,0,1-.48.436,1.662,1.662,0,0,1-1.44,0,1.374,1.374,0,0,1-.48-.436,1.892,1.892,0,0,1-.268-.612A2.908,2.908,0,0,1,34.372,5.168Zm-1.256,0a3.45,3.45,0,0,0,.192,1.164,2.78,2.78,0,0,0,.552.94,2.529,2.529,0,0,0,.884.628,3.178,3.178,0,0,0,2.364,0,2.537,2.537,0,0,0,.88-.628,2.78,2.78,0,0,0,.552-.94,3.45,3.45,0,0,0,.192-1.164A3.569,3.569,0,0,0,38.54,3.98a2.854,2.854,0,0,0-.552-.956,2.533,2.533,0,0,0-.88-.64,3.127,3.127,0,0,0-2.364,0,2.524,2.524,0,0,0-.884.64,2.854,2.854,0,0,0-.552.956A3.569,3.569,0,0,0,33.116,5.168Zm6.6-.544V8h1.136V4.624h.784v-.76h-.784V3.616a.531.531,0,0,1,.1-.364.436.436,0,0,1,.332-.108,3.491,3.491,0,0,1,.416.024V2.32q-.144-.008-.3-.02t-.3-.012a1.394,1.394,0,0,0-1.04.352,1.239,1.239,0,0,0-.344.9v.32h-.68v.76Zm4.76-2.336V8h1.256V2.288Zm2.24,1.576V8h1.136V5.832a1.534,1.534,0,0,1,.208-.908.787.787,0,0,1,.672-.276A.62.62,0,0,1,49.3,4.9a1.449,1.449,0,0,1,.16.764V8H50.6V5.456a3.334,3.334,0,0,0-.068-.7,1.331,1.331,0,0,0-.236-.536,1.109,1.109,0,0,0-.46-.344,1.929,1.929,0,0,0-.748-.124,1.619,1.619,0,0,0-.7.164,1.3,1.3,0,0,0-.56.524H47.8V3.864ZM54.4,5.92a2.523,2.523,0,0,1-.048.5,1.344,1.344,0,0,1-.16.428.851.851,0,0,1-.3.3.9.9,0,0,1-.468.112.844.844,0,0,1-.452-.116,1,1,0,0,1-.312-.3,1.311,1.311,0,0,1-.18-.428,2.106,2.106,0,0,1-.056-.48,2.28,2.28,0,0,1,.052-.492,1.308,1.308,0,0,1,.168-.42.886.886,0,0,1,.308-.3.923.923,0,0,1,.472-.112.879.879,0,0,1,.464.112.923.923,0,0,1,.3.292,1.2,1.2,0,0,1,.164.416A2.463,2.463,0,0,1,54.4,5.92Zm.016,1.552V8h1.08V2.288H54.356v2.08H54.34a1.219,1.219,0,0,0-.524-.46,1.626,1.626,0,0,0-.7-.156,1.67,1.67,0,0,0-1.372.656,2.09,2.09,0,0,0-.344.684,2.792,2.792,0,0,0-.116.8,2.972,2.972,0,0,0,.116.832,2.215,2.215,0,0,0,.344.708,1.638,1.638,0,0,0,.58.488,1.768,1.768,0,0,0,.816.18,1.743,1.743,0,0,0,.732-.148,1.172,1.172,0,0,0,.524-.484Zm3.1-4.248V2.288H56.38v.936Zm-1.136.64V8h1.136V3.864Zm1.984,1.272a1.32,1.32,0,0,1,.2-.664,1.362,1.362,0,0,1,.448-.424,1.952,1.952,0,0,1,.612-.228,3.479,3.479,0,0,1,.684-.068,4.636,4.636,0,0,1,.632.044,1.933,1.933,0,0,1,.584.172,1.151,1.151,0,0,1,.432.356,1,1,0,0,1,.168.6V7.08a4.322,4.322,0,0,0,.032.536A.969.969,0,0,0,62.268,8H61.116a1.63,1.63,0,0,1-.052-.2,1.707,1.707,0,0,1-.028-.2,1.48,1.48,0,0,1-.64.392,2.569,2.569,0,0,1-.752.112,2.032,2.032,0,0,1-.552-.072,1.264,1.264,0,0,1-.448-.224,1.043,1.043,0,0,1-.3-.384,1.3,1.3,0,0,1-.108-.552,1.206,1.206,0,0,1,.124-.58,1.037,1.037,0,0,1,.32-.364,1.434,1.434,0,0,1,.448-.2,4.783,4.783,0,0,1,.508-.108q.256-.04.5-.064a3.031,3.031,0,0,0,.44-.072.767.767,0,0,0,.3-.14.307.307,0,0,0,.1-.268.6.6,0,0,0-.06-.292.441.441,0,0,0-.16-.168.629.629,0,0,0-.232-.08,1.9,1.9,0,0,0-.284-.02.862.862,0,0,0-.528.144.643.643,0,0,0-.224.48Zm2.624.84a.51.51,0,0,1-.18.1,1.838,1.838,0,0,1-.232.06q-.124.024-.26.04t-.272.04a2.052,2.052,0,0,0-.252.064.745.745,0,0,0-.216.108.513.513,0,0,0-.148.172.553.553,0,0,0-.056.264.534.534,0,0,0,.056.256.429.429,0,0,0,.152.164.642.642,0,0,0,.224.084,1.43,1.43,0,0,0,.264.024,1,1,0,0,0,.52-.112.749.749,0,0,0,.272-.268.857.857,0,0,0,.108-.316,2.171,2.171,0,0,0,.02-.256Z" transform="translate(-6.905 -2.152)" fill="#c4c4c4"/>
      <path id="Path_84788" data-name="Path 84788" d="M8.375,9.19l.16.81h1V6.14h-3V7.31h1.58A1.717,1.717,0,0,1,7.62,8.455a1.7,1.7,0,0,1-1.205.4,1.833,1.833,0,0,1-.9-.2,1.717,1.717,0,0,1-.6-.545,2.365,2.365,0,0,1-.335-.765,3.635,3.635,0,0,1-.105-.875,3.907,3.907,0,0,1,.105-.91,2.41,2.41,0,0,1,.335-.785,1.7,1.7,0,0,1,.6-.55,1.833,1.833,0,0,1,.9-.2,1.57,1.57,0,0,1,.97.3,1.5,1.5,0,0,1,.54.9h1.5A2.622,2.622,0,0,0,8.41,3.34a3.018,3.018,0,0,0-.93-.485A3.469,3.469,0,0,0,6.415,2.69a3.606,3.606,0,0,0-1.475.29,3.155,3.155,0,0,0-1.105.8,3.567,3.567,0,0,0-.69,1.195A4.461,4.461,0,0,0,2.9,6.46a4.312,4.312,0,0,0,.24,1.455,3.475,3.475,0,0,0,.69,1.175,3.161,3.161,0,0,0,1.105.785,3.661,3.661,0,0,0,1.475.285,2.631,2.631,0,0,0,1.03-.215A2.353,2.353,0,0,0,8.375,9.19Zm3.5-1.56h-1.52a2.358,2.358,0,0,0,.24,1.14,2.248,2.248,0,0,0,.675.79,2.88,2.88,0,0,0,.98.455,4.511,4.511,0,0,0,1.145.145,4.4,4.4,0,0,0,1.285-.17,2.717,2.717,0,0,0,.93-.475,1.977,1.977,0,0,0,.565-.725,2.182,2.182,0,0,0,.19-.91,1.75,1.75,0,0,0-.255-.985A2.13,2.13,0,0,0,15.5,6.28a2.66,2.66,0,0,0-.7-.335q-.355-.105-.555-.145-.67-.17-1.085-.28a4.025,4.025,0,0,1-.65-.22.714.714,0,0,1-.315-.24.642.642,0,0,1-.08-.34.671.671,0,0,1,.1-.38.868.868,0,0,1,.255-.25,1.017,1.017,0,0,1,.345-.14,1.84,1.84,0,0,1,.38-.04,2.678,2.678,0,0,1,.535.05,1.29,1.29,0,0,1,.435.17.883.883,0,0,1,.3.33,1.262,1.262,0,0,1,.135.53h1.52a2.193,2.193,0,0,0-.235-1.055,2.049,2.049,0,0,0-.635-.715,2.681,2.681,0,0,0-.915-.405,4.542,4.542,0,0,0-1.075-.125,3.658,3.658,0,0,0-.96.13,2.68,2.68,0,0,0-.86.4,2.129,2.129,0,0,0-.615.675,1.87,1.87,0,0,0-.235.955,1.746,1.746,0,0,0,.185.835,1.766,1.766,0,0,0,.485.575,2.68,2.68,0,0,0,.68.375,6.837,6.837,0,0,0,.78.245q.39.11.77.2a4.841,4.841,0,0,1,.68.21,1.467,1.467,0,0,1,.485.3.626.626,0,0,1,.185.47.69.69,0,0,1-.14.445.982.982,0,0,1-.35.275,1.566,1.566,0,0,1-.45.135,3.128,3.128,0,0,1-.45.035,2.387,2.387,0,0,1-.6-.075,1.493,1.493,0,0,1-.505-.23,1.136,1.136,0,0,1-.345-.405A1.31,1.31,0,0,1,11.875,7.63Zm7-3.45V10h1.57V4.18h2.14V2.86h-5.85V4.18Zm8.38,3.45h-1.52a2.358,2.358,0,0,0,.24,1.14,2.248,2.248,0,0,0,.675.79,2.88,2.88,0,0,0,.98.455,4.511,4.511,0,0,0,1.145.145,4.4,4.4,0,0,0,1.285-.17,2.717,2.717,0,0,0,.93-.475,1.977,1.977,0,0,0,.565-.725,2.182,2.182,0,0,0,.19-.91,1.75,1.75,0,0,0-.255-.985,2.13,2.13,0,0,0-.6-.615,2.66,2.66,0,0,0-.7-.335q-.355-.105-.555-.145-.67-.17-1.085-.28a4.025,4.025,0,0,1-.65-.22.714.714,0,0,1-.315-.24.642.642,0,0,1-.08-.34.671.671,0,0,1,.1-.38.869.869,0,0,1,.255-.25,1.017,1.017,0,0,1,.345-.14,1.84,1.84,0,0,1,.38-.04,2.678,2.678,0,0,1,.535.05,1.289,1.289,0,0,1,.435.17.883.883,0,0,1,.305.33,1.262,1.262,0,0,1,.135.53H31.5a2.193,2.193,0,0,0-.235-1.055,2.049,2.049,0,0,0-.635-.715,2.681,2.681,0,0,0-.915-.405,4.542,4.542,0,0,0-1.075-.125,3.658,3.658,0,0,0-.96.13,2.68,2.68,0,0,0-.86.4,2.129,2.129,0,0,0-.615.675,1.87,1.87,0,0,0-.235.955,1.746,1.746,0,0,0,.185.835,1.766,1.766,0,0,0,.485.575,2.68,2.68,0,0,0,.68.375,6.837,6.837,0,0,0,.78.245q.39.11.77.2a4.841,4.841,0,0,1,.68.21,1.467,1.467,0,0,1,.485.3.626.626,0,0,1,.185.47.69.69,0,0,1-.14.445.982.982,0,0,1-.35.275,1.566,1.566,0,0,1-.45.135,3.128,3.128,0,0,1-.45.035,2.387,2.387,0,0,1-.6-.075,1.493,1.493,0,0,1-.5-.23,1.136,1.136,0,0,1-.345-.405A1.31,1.31,0,0,1,27.255,7.63ZM37.375,10V4.83h-1.42V7.54a1.918,1.918,0,0,1-.26,1.135.984.984,0,0,1-.84.345.775.775,0,0,1-.71-.315,1.812,1.812,0,0,1-.2-.955V4.83h-1.42V8.01a4.167,4.167,0,0,0,.085.875,1.664,1.664,0,0,0,.295.67,1.349,1.349,0,0,0,.575.425,2.484,2.484,0,0,0,.935.15,2.066,2.066,0,0,0,.88-.2,1.6,1.6,0,0,0,.7-.65h.03V10Zm3.94,0,1.75-5.17h-1.41l-1.09,3.53h-.02l-1.09-3.53h-1.49L39.735,10Zm3.8-5.97V2.86h-1.42V4.03Zm-1.42.8V10h1.42V4.83ZM49.9,7.4a3.154,3.154,0,0,1-.06.62,1.68,1.68,0,0,1-.2.535,1.064,1.064,0,0,1-.375.375,1.126,1.126,0,0,1-.585.14,1.055,1.055,0,0,1-.565-.145,1.247,1.247,0,0,1-.39-.38,1.639,1.639,0,0,1-.225-.535,2.633,2.633,0,0,1-.07-.6A2.851,2.851,0,0,1,47.5,6.8a1.635,1.635,0,0,1,.21-.525A1.107,1.107,0,0,1,48.1,5.9a1.154,1.154,0,0,1,.59-.14,1.1,1.1,0,0,1,.58.14,1.154,1.154,0,0,1,.375.365,1.5,1.5,0,0,1,.205.52A3.079,3.079,0,0,1,49.9,7.4Zm.02,1.94V10h1.35V2.86h-1.42v2.6h-.02a1.524,1.524,0,0,0-.655-.575,2.033,2.033,0,0,0-.875-.2,2.087,2.087,0,0,0-1.715.82,2.612,2.612,0,0,0-.43.855,3.49,3.49,0,0,0-.145,1.005,3.715,3.715,0,0,0,.145,1.04,2.768,2.768,0,0,0,.43.885,2.048,2.048,0,0,0,.725.61,2.211,2.211,0,0,0,1.02.225,2.178,2.178,0,0,0,.915-.185,1.465,1.465,0,0,0,.655-.6Zm2.42-6.48V10h1.42V7.29a1.918,1.918,0,0,1,.26-1.135.984.984,0,0,1,.84-.345.775.775,0,0,1,.71.315,1.812,1.812,0,0,1,.2.955V10h1.42V6.82a4.167,4.167,0,0,0-.085-.875,1.664,1.664,0,0,0-.3-.67,1.386,1.386,0,0,0-.575-.43,2.412,2.412,0,0,0-.935-.155,1.862,1.862,0,0,0-.82.205,1.644,1.644,0,0,0-.69.655h-.03V2.86Zm5.87,3.56a1.649,1.649,0,0,1,.25-.83,1.7,1.7,0,0,1,.56-.53,2.44,2.44,0,0,1,.765-.285,4.349,4.349,0,0,1,.855-.085,5.8,5.8,0,0,1,.79.055,2.417,2.417,0,0,1,.73.215,1.438,1.438,0,0,1,.54.445,1.243,1.243,0,0,1,.21.755V8.85a5.4,5.4,0,0,0,.04.67,1.211,1.211,0,0,0,.14.48h-1.44a2.038,2.038,0,0,1-.065-.245,2.134,2.134,0,0,1-.035-.255,1.85,1.85,0,0,1-.8.49,3.211,3.211,0,0,1-.94.14,2.54,2.54,0,0,1-.69-.09,1.58,1.58,0,0,1-.56-.28,1.3,1.3,0,0,1-.375-.48,1.623,1.623,0,0,1-.135-.69,1.507,1.507,0,0,1,.155-.725,1.3,1.3,0,0,1,.4-.455,1.792,1.792,0,0,1,.56-.255,5.978,5.978,0,0,1,.635-.135q.32-.05.63-.08a3.789,3.789,0,0,0,.55-.09.959.959,0,0,0,.38-.175.384.384,0,0,0,.13-.335.753.753,0,0,0-.075-.365.552.552,0,0,0-.2-.21.787.787,0,0,0-.29-.1,2.373,2.373,0,0,0-.355-.025,1.078,1.078,0,0,0-.66.18.8.8,0,0,0-.28.6Zm3.28,1.05a.637.637,0,0,1-.225.125,2.3,2.3,0,0,1-.29.075q-.155.03-.325.05t-.34.05A2.564,2.564,0,0,0,60,7.85a.931.931,0,0,0-.27.135.642.642,0,0,0-.185.215.692.692,0,0,0-.07.33.668.668,0,0,0,.07.32.537.537,0,0,0,.19.2.8.8,0,0,0,.28.1,1.787,1.787,0,0,0,.33.03,1.255,1.255,0,0,0,.65-.14.936.936,0,0,0,.34-.335,1.071,1.071,0,0,0,.135-.4A2.713,2.713,0,0,0,61.495,8Zm-46.24,8.75V14.08h1.22a3.288,3.288,0,0,1,.52.04,1.21,1.21,0,0,1,.44.155.844.844,0,0,1,.305.325,1.373,1.373,0,0,1,0,1.1.844.844,0,0,1-.305.325,1.21,1.21,0,0,1-.44.155,3.288,3.288,0,0,1-.52.04Zm-1.57-3.36V20h1.57V17.44h1.65a2.974,2.974,0,0,0,1.14-.2,2.133,2.133,0,0,0,.765-.515,1.972,1.972,0,0,0,.43-.735,2.728,2.728,0,0,0,0-1.695,1.978,1.978,0,0,0-.43-.73,2.133,2.133,0,0,0-.765-.515,2.974,2.974,0,0,0-1.14-.195Zm6.52,1.97V20h1.42V17.67a2.858,2.858,0,0,1,.07-.65,1.423,1.423,0,0,1,.235-.525,1.143,1.143,0,0,1,.435-.355,1.513,1.513,0,0,1,.66-.13,2.536,2.536,0,0,1,.27.015q.14.015.24.035V14.74a1.107,1.107,0,0,0-.31-.05,1.7,1.7,0,0,0-.52.08,1.906,1.906,0,0,0-.47.225,1.769,1.769,0,0,0-.39.35,1.746,1.746,0,0,0-.27.445h-.02v-.96Zm4.97,2.59a3.1,3.1,0,0,1,.06-.61,1.556,1.556,0,0,1,.2-.53,1.092,1.092,0,0,1,.985-.52,1.17,1.17,0,0,1,.605.145,1.137,1.137,0,0,1,.39.375,1.556,1.556,0,0,1,.2.53,3.1,3.1,0,0,1,.06.61,3.028,3.028,0,0,1-.06.6,1.612,1.612,0,0,1-.2.53,1.079,1.079,0,0,1-.39.375,1.2,1.2,0,0,1-.605.14,1.175,1.175,0,0,1-.6-.14,1.092,1.092,0,0,1-.385-.375,1.612,1.612,0,0,1-.2-.53A3.028,3.028,0,0,1,25.175,17.42Zm-1.42,0a3.133,3.133,0,0,0,.19,1.12,2.43,2.43,0,0,0,.54.855,2.362,2.362,0,0,0,.84.545,3.022,3.022,0,0,0,1.1.19,3.062,3.062,0,0,0,1.1-.19,2.353,2.353,0,0,0,.845-.545,2.43,2.43,0,0,0,.54-.855,3.133,3.133,0,0,0,.19-1.12,3.174,3.174,0,0,0-.19-1.125,2.355,2.355,0,0,0-1.385-1.41,2.992,2.992,0,0,0-1.1-.2,2.953,2.953,0,0,0-1.1.2,2.364,2.364,0,0,0-1.38,1.41A3.174,3.174,0,0,0,23.755,17.42ZM32.885,20l1.75-5.17h-1.41l-1.09,3.53h-.02l-1.09-3.53h-1.49L31.305,20Zm3.8-5.97V12.86h-1.42v1.17Zm-1.42.8V20h1.42V14.83Zm6.21,2.57a3.154,3.154,0,0,1-.06.62,1.68,1.68,0,0,1-.2.535,1.063,1.063,0,0,1-.375.375,1.126,1.126,0,0,1-.585.14,1.055,1.055,0,0,1-.565-.145,1.247,1.247,0,0,1-.39-.38,1.639,1.639,0,0,1-.225-.535,2.633,2.633,0,0,1-.07-.6,2.851,2.851,0,0,1,.065-.615,1.635,1.635,0,0,1,.21-.525,1.107,1.107,0,0,1,.385-.37,1.154,1.154,0,0,1,.59-.14,1.1,1.1,0,0,1,.58.14,1.154,1.154,0,0,1,.375.365,1.5,1.5,0,0,1,.205.52A3.079,3.079,0,0,1,41.475,17.4Zm.02,1.94V20h1.35V12.86h-1.42v2.6H41.4a1.524,1.524,0,0,0-.655-.575,2.033,2.033,0,0,0-.875-.2,2.087,2.087,0,0,0-1.715.82,2.612,2.612,0,0,0-.43.855,3.49,3.49,0,0,0-.145,1,3.715,3.715,0,0,0,.145,1.04,2.768,2.768,0,0,0,.43.885,2.048,2.048,0,0,0,.725.61,2.211,2.211,0,0,0,1.02.225,2.178,2.178,0,0,0,.915-.185,1.465,1.465,0,0,0,.655-.6Zm5.9-2.48h-2.31a1.63,1.63,0,0,1,.065-.34,1.044,1.044,0,0,1,.19-.36,1.076,1.076,0,0,1,.36-.285,1.235,1.235,0,0,1,.565-.115,1,1,0,0,1,.775.28A1.641,1.641,0,0,1,47.4,16.86Zm-2.31.9h3.73a3.65,3.65,0,0,0-.1-1.15,2.815,2.815,0,0,0-.455-.98,2.3,2.3,0,0,0-.805-.685,2.458,2.458,0,0,0-1.15-.255,2.678,2.678,0,0,0-1.075.21,2.5,2.5,0,0,0-1.375,1.44,3.015,3.015,0,0,0-.19,1.08,3.148,3.148,0,0,0,.185,1.1,2.5,2.5,0,0,0,.525.86,2.287,2.287,0,0,0,.83.555,2.953,2.953,0,0,0,1.1.195,2.708,2.708,0,0,0,1.5-.4,2.373,2.373,0,0,0,.92-1.33h-1.25a.892.892,0,0,1-.38.455,1.456,1.456,0,0,1-1.66-.095A1.436,1.436,0,0,1,45.085,17.76Zm4.57-2.93V20h1.42V17.67a2.858,2.858,0,0,1,.07-.65,1.423,1.423,0,0,1,.235-.525,1.143,1.143,0,0,1,.435-.355,1.513,1.513,0,0,1,.66-.13,2.536,2.536,0,0,1,.27.015q.14.015.24.035V14.74a1.107,1.107,0,0,0-.31-.05,1.7,1.7,0,0,0-.52.08,1.906,1.906,0,0,0-.47.225,1.769,1.769,0,0,0-.39.35,1.746,1.746,0,0,0-.27.445H51v-.96Z" transform="translate(-2.905 9.848)" fill="#d5d5d5"/>
    </g>
  </g>
  <g id="Group_163873" data-name="Group 163873" transform="translate(76.669 0)">
    <path id="Path_84764-2" data-name="Path 84764" d="M23.7,53.15c.243-.27.458-.487.61-.636l.178-.173.059-.063s.073.092.175.253a7.079,7.079,0,0,1,.385.679,6.451,6.451,0,0,1,.678,2.259,3.545,3.545,0,0,1-.13,1.339,4.088,4.088,0,0,1-.638,1.32c-.076.106-.159.21-.247.312a3.736,3.736,0,0,1-.311.286,5.434,5.434,0,0,1-.745.524,7.453,7.453,0,0,1-2.005.79,2.047,2.047,0,0,1-1.05-2.287,4.167,4.167,0,0,1,.513-1.265c.061-.105.127-.209.195-.314s.121-.215.186-.32q.2-.319.42-.624A14.019,14.019,0,0,1,22.9,54.1c.277-.362.552-.684.8-.952" transform="translate(-14.724 1.157)" fill="#fff"/>
    <path id="Path_84765-2" data-name="Path 84765" d="M16.375,51.514l.1-.314a8.984,8.984,0,0,1,.483-1.172c.086-.178.185-.345.262-.509s.141-.321.207-.462a9,9,0,0,1,.5-.916,9.675,9.675,0,0,1,.841.825,9.376,9.376,0,0,1,.741.922,5.314,5.314,0,0,1,.643,1.153,4.42,4.42,0,0,1,.3,1.284,3.263,3.263,0,0,1-.012.666,2.122,2.122,0,0,1-.059.333,2.837,2.837,0,0,1-.121.318,3.545,3.545,0,0,1-.9,1.2,3.8,3.8,0,0,1-.73.517,6.856,6.856,0,0,1-.976.415,2.428,2.428,0,0,1-1.633-2.059,3.691,3.691,0,0,1,.063-1.263,5.265,5.265,0,0,1,.177-.631c.036-.1.073-.207.115-.31" transform="translate(-3.004 1.065)" fill="#fff"/>
    <path id="Path_84766-2" data-name="Path 84766" d="M15.662,50.582a5.044,5.044,0,0,1-.78.5,3.225,3.225,0,0,1-2.236-1.775c-.076-.185-.156-.384-.219-.587a4.362,4.362,0,0,1-.137-.614,5.951,5.951,0,0,1-.039-1.231,7.438,7.438,0,0,1,.061-1.172c.044-.363.123-.689.142-.98a6.7,6.7,0,0,1,.175-.938,12.585,12.585,0,0,1,1.067.7,12.819,12.819,0,0,1,1.009.8c.173.154.359.321.516.491s.315.35.457.535A5.572,5.572,0,0,1,16.4,47.5a3.911,3.911,0,0,1,.215.637,2.633,2.633,0,0,1,.025.634,2.563,2.563,0,0,1-.438,1.244,2.223,2.223,0,0,1-.542.564" transform="translate(5.99 0.969)" fill="#fff"/>
    <path id="Path_84767-2" data-name="Path 84767" d="M14.283,45.385a3.684,3.684,0,0,1-.571.564A4.2,4.2,0,0,1,11,44.509c-.072-.085-.137-.173-.2-.261s-.132-.182-.2-.276a5.448,5.448,0,0,1-.326-.576,6.038,6.038,0,0,1-.426-1.182,8.745,8.745,0,0,1-.294-1.144c-.035-.18-.059-.352-.081-.514a4.464,4.464,0,0,0-.062-.457,6.762,6.762,0,0,1-.1-.943s.507.207,1.223.58c.359.187.77.414,1.2.679a10.535,10.535,0,0,1,1.223.888A7.6,7.6,0,0,1,14,42.372a3.694,3.694,0,0,1,.395.587,3.208,3.208,0,0,1,.228.6,2.243,2.243,0,0,1-.011,1.23,1.751,1.751,0,0,1-.33.6" transform="translate(11.984 0.866)" fill="#fff"/>
    <path id="Path_84768-2" data-name="Path 84768" d="M10.8,39a7.259,7.259,0,0,1-1-1.01,7.574,7.574,0,0,1-.731-1.114,11.359,11.359,0,0,1-.936-2.047c-.217-.557-.322-.926-.322-.926s.538.166,1.314.474c.382.153.846.345,1.3.566a15.491,15.491,0,0,1,1.386.765A6.214,6.214,0,0,1,14,37.739a2.376,2.376,0,0,1,.334,1.183,2.038,2.038,0,0,1-.526,1.2A4.994,4.994,0,0,1,10.8,39" transform="translate(14.41 0.75)" fill="#fff"/>
    <path id="Path_84769-2" data-name="Path 84769" d="M10.528,33.974a6.331,6.331,0,0,1-.6-.428c-.2-.151-.391-.315-.569-.48a8.8,8.8,0,0,1-.951-1.045c-.139-.178-.265-.352-.388-.529s-.247-.358-.357-.532c-.219-.343-.4-.666-.545-.942-.279-.555-.44-.917-.44-.917s.549.137,1.337.406a21.727,21.727,0,0,1,2.81,1.174,12.007,12.007,0,0,1,1.416.844,5.893,5.893,0,0,1,1.086.985,2.557,2.557,0,0,1,.577,1.111,1.85,1.85,0,0,1-.224,1.192,5.48,5.48,0,0,1-3.152-.839" transform="translate(16.39 0.644)" fill="#fff"/>
    <path id="Path_84770-2" data-name="Path 84770" d="M13.93,29.163a5.585,5.585,0,0,1-3.166-.655,7.566,7.566,0,0,1-1.246-.835,9.786,9.786,0,0,1-1.07-.965c-.323-.328-.584-.667-.853-.968s-.486-.588-.664-.832-.315-.448-.409-.591l-.149-.22.374.071c.243.045.571.121.969.22a21.922,21.922,0,0,1,2.879.938c.258.106.515.221.766.341s.479.252.705.39a6.57,6.57,0,0,1,1.191.9,2.012,2.012,0,0,1,.672,2.208" transform="translate(16.693 0.533)" fill="#fff"/>
    <path id="Path_84771-2" data-name="Path 84771" d="M12.134,22.533A12.054,12.054,0,0,1,9.61,21.026c-.181-.138-.346-.28-.513-.418s-.342-.265-.5-.394c-.311-.257-.574-.5-.792-.706s-.4-.375-.529-.493l-.2-.185s.54.034,1.359.143a20.084,20.084,0,0,1,2.941.628,12.746,12.746,0,0,1,1.573.565,7.226,7.226,0,0,1,1.3.765,4.211,4.211,0,0,1,.507.45,1.8,1.8,0,0,1,.355.494,1.685,1.685,0,0,1,.156,1.1,5.885,5.885,0,0,1-3.139-.446" transform="translate(14.454 0.417)" fill="#fff"/>
    <path id="Path_84772-2" data-name="Path 84772" d="M10.476,14.346c.4.006.878.026,1.4.062s1.048.1,1.605.193a15.372,15.372,0,0,1,1.658.358c.272.077.537.158.795.251a6.043,6.043,0,0,1,.7.313c.863.457,1.564,1.052,1.594,1.809a6.021,6.021,0,0,1-3.083-.086,13.065,13.065,0,0,1-2.851-1.113,22.7,22.7,0,0,1-2.208-1.214c-.584-.332-.926-.566-.926-.566s.518-.025,1.325-.007" transform="translate(8.681 0.317)" fill="#fff"/>
    <path id="Path_84773-2" data-name="Path 84773" d="M13.714,10.028a22.959,22.959,0,0,1,2.952-.011,13.659,13.659,0,0,1,3.3.57,3.586,3.586,0,0,1,2.109,1.537,4.408,4.408,0,0,1-1.409.324,7.683,7.683,0,0,1-1.557-.053,12.284,12.284,0,0,1-1.569-.315c-.515-.137-1-.3-1.515-.463-1-.331-1.856-.706-2.511-.991s-1.075-.486-1.075-.486.5-.062,1.277-.112" transform="translate(0.292 0.221)" fill="#fff"/>
    <path id="Path_84774-2" data-name="Path 84774" d="M23.7,6.053A3.584,3.584,0,0,1,25.791,7.53c-1.641.733-3.991.187-5.87-.5A26.292,26.292,0,0,1,17.443,6c-.631-.3-1.014-.513-1.014-.513a26.033,26.033,0,0,1,4.091-.025,12.854,12.854,0,0,1,3.183.587" transform="translate(-8.935 0.119)" fill="#fff"/>
    <path id="Path_84786-2" data-name="Path 84786" d="M0,64.214a77.484,77.484,0,0,0,9.182-2.545A43.088,43.088,0,0,0,26.3,48.409a27.269,27.269,0,0,0,4.774-11.156,30.126,30.126,0,0,0,.821-10.19C30.649,17.681,22.321,9.5,11.408,2.727a29.552,29.552,0,0,1,4.319,2.1h0a2.636,2.636,0,0,1-.265-.375,4.129,4.129,0,0,1-.522-1.988A7,7,0,0,1,15.41,0s.362.287.849.739a12.985,12.985,0,0,1,1.6,1.733c.958,1.359,1.419,2.858-.293,3.572C19.292,7.2,20.872,8.3,22.316,9.418c-.021-.047-.039-.094-.055-.143a3.937,3.937,0,0,1-.13-2.113,9.259,9.259,0,0,1,.534-1.788,6.982,6.982,0,0,1,.363-.756s.341.324.794.828a11.03,11.03,0,0,1,1.343,1.973,4,4,0,0,1,.413,1.141A2.727,2.727,0,0,1,25.6,9.639a1.66,1.66,0,0,1-.48.886,2.434,2.434,0,0,1-.832.5,31.815,31.815,0,0,1,3.37,3.35c.006-.066.014-.133.019-.2a3.714,3.714,0,0,1,.1-.552,6.089,6.089,0,0,1,.4-1.089c.166-.351.371-.7.544-1s.356-.579.518-.812c.322-.466.571-.757.571-.757s.275.38.609.962a9.029,9.029,0,0,1,.814,2.222,3.836,3.836,0,0,1-.284,2.35,2.675,2.675,0,0,1-1.533,1.175,26.292,26.292,0,0,1,1.913,3.324c.075-.138.159-.271.25-.406a8.916,8.916,0,0,1,.789-1.049,19.012,19.012,0,0,1,1.746-1.715c.487-.435.843-.7.843-.7s.033.106.094.291a4.062,4.062,0,0,1,.174.771c.046.319.084.693.1,1.094.007.2.008.406,0,.614a5.931,5.931,0,0,1-.092.634,4.274,4.274,0,0,1-1.135,2.32,3.607,3.607,0,0,1-1.618.935,22.191,22.191,0,0,1,.8,3.13c.043-.048.088-.1.135-.141.171-.173.359-.34.548-.5s.374-.324.57-.479a21.1,21.1,0,0,1,2.288-1.536c.327-.191.609-.343.795-.451l.3-.163a2.658,2.658,0,0,1,0,.3c-.015.185-.037.451-.081.77s-.109.69-.206,1.083a6.567,6.567,0,0,1-.447,1.219,7.123,7.123,0,0,1-.7,1.2,5.388,5.388,0,0,1-1.023,1.015,4.547,4.547,0,0,1-1.837.824,26.468,26.468,0,0,1-.059,3.291c.15-.145.311-.288.478-.428a12.255,12.255,0,0,1,1.295-.938,22.576,22.576,0,0,1,2.625-1.406c.738-.343,1.235-.544,1.235-.544a6.219,6.219,0,0,1-.265,1.047c-.1.311-.235.672-.4,1.057-.083.193-.174.391-.277.593s-.229.415-.359.622a8.56,8.56,0,0,1-.907,1.207,5.254,5.254,0,0,1-1.2,1.01,5.138,5.138,0,0,1-2.614.811,39.052,39.052,0,0,1-.908,3.877c.032-.036.062-.069.1-.1a12.886,12.886,0,0,1,2.827-1.918c.53-.277,1.071-.529,1.582-.754s.966-.422,1.375-.581c.81-.325,1.364-.508,1.364-.508a9.409,9.409,0,0,1-.436,1.106,12.973,12.973,0,0,1-1.533,2.365,11.059,11.059,0,0,1-1.224,1.192,6.873,6.873,0,0,1-1.463.959,5.818,5.818,0,0,1-3.332.58c-.055.164-.113.325-.171.486a24.825,24.825,0,0,1-1.506,3.4c.11-.085.226-.169.345-.25.243-.167.508-.324.784-.476s.54-.3.829-.446c.574-.286,1.191-.549,1.811-.786s1.257-.455,1.815-.648,1.1-.356,1.551-.492c.915-.27,1.531-.418,1.531-.418s-.262.46-.734,1.124a12.356,12.356,0,0,1-.951,1.114,16.108,16.108,0,0,1-1.266,1.22,14.909,14.909,0,0,1-1.615,1.123c-.283.169-.571.326-.865.468q-.222.106-.443.2c-.16.062-.317.121-.473.173a6.374,6.374,0,0,1-3.609.242,27.346,27.346,0,0,1-2.934,3.65c.178-.1.363-.194.558-.282.305-.14.629-.271.961-.4.315-.129.646-.248.985-.364.675-.228,1.391-.427,2.1-.606.356-.087.711-.17,1.06-.249l.988-.223c.635-.139,1.23-.256,1.738-.349,1.02-.187,1.7-.28,1.7-.28s-.417.451-1.119,1.094a12.668,12.668,0,0,1-1.33,1.051c-.518.373-1.093.757-1.7,1.121a19.128,19.128,0,0,1-2.03.965c-.346.141-.7.268-1.045.379a8.291,8.291,0,0,1-1.057.276,6.526,6.526,0,0,1-3.8-.206c-1.1,1.012-2.254,2.033-3.479,3.031l.15-.047c.181-.053.363-.1.549-.148s.357-.1.542-.143c.366-.092.744-.173,1.128-.249.766-.147,1.562-.265,2.346-.36.8-.089,1.525-.181,2.225-.245s1.34-.115,1.891-.153c1.1-.074,1.822-.091,1.822-.091s-.587.412-1.532.981c-.236.142-.494.3-.77.453s-.607.308-.934.466c-.661.314-1.383.633-2.131.928-.189.073-.373.146-.569.214s-.4.128-.6.189c-.4.122-.807.234-1.208.331a15.906,15.906,0,0,1-2.348.415,6.9,6.9,0,0,1-3.323-.426c-1,.719-2.051,1.41-3.141,2.063.33-.036.665-.068,1-.093.825-.061,1.693-.071,2.484-.1,1.605-.037,3.145.014,4.285.073.571.029,1.039.061,1.364.085l.5.037-.126.063c-.083.042-.214.1-.377.167-.326.143-.8.342-1.375.568s-1.253.486-2,.741c-.767.236-1.6.467-2.458.673-.426.1-.861.2-1.289.282-.218.044-.433.083-.649.122s-.442.061-.657.088a18.676,18.676,0,0,1-2.513.141,7.185,7.185,0,0,1-2.742-.509q-.611.265-1.241.51a.461.461,0,0,1-.222.041,37.57,37.57,0,0,1-6.309,1.72" transform="translate(0)" fill="#fff"/>
  </g>
</svg>
