<svg version="1.1" xmlns="http://www.w3.org/2000/svg" viewBox="0 0 146 102" width="146" height="102"><defs><clipPath id="source-alpha-boundary-clip" clipPathUnits="userSpaceOnUse"><path d="M61 0H73V1H61ZM57 1H72V2H57ZM79 1H83V2H79ZM54 2H71V3H54ZM78 2H87V3H78ZM51 3H70V4H51ZM77 3H90V4H77ZM49 4H70V5H49ZM77 4H92V5H77ZM47 5H69V6H47ZM76 5H94V6H76ZM45 6H68V7H45ZM75 6H95V7H75ZM44 7H52V8H44ZM57 7H67V8H57ZM74 7H95V8H74ZM57 8H66V9H57ZM74 8H94V9H74ZM55 9H65V10H55ZM73 9H94V10H73ZM54 10H64V11H54ZM73 10H93V11H73ZM99 10H102V11H99ZM53 11H63V12H53ZM80 11H92V12H80ZM98 11H103V12H98ZM52 12H61V13H52ZM81 12H91V13H81ZM97 12H104V13H97ZM145 12H146V13H145ZM50 13H60V14H50ZM80 13H90V14H80ZM96 13H105V14H96ZM144 13H146V14H144ZM49 14H59V15H49ZM79 14H89V15H79ZM95 14H106V15H95ZM143 14H146V15H143ZM48 15H57V16H48ZM78 15H88V16H78ZM95 15H107V16H95ZM141 15H145V16H141ZM46 16H56V17H46ZM77 16H87V17H77ZM94 16H108V17H94ZM140 16H144V17H140ZM45 17H54V18H45ZM76 17H86V18H76ZM93 17H109V18H93ZM139 17H143V18H139ZM43 18H52V19H43ZM75 18H85V19H75ZM138 18H142V19H138ZM92 18H109V20H92ZM42 19H51V20H42ZM74 19H84V20H74ZM136 19H141V20H136ZM40 20H48V21H40ZM73 20H83V21H73ZM93 20H108V21H93ZM135 20H140V21H135ZM38 21H46V22H38ZM72 21H82V22H72ZM94 21H107V22H94ZM134 21H139V22H134ZM37 22H43V23H37ZM71 22H81V23H71ZM95 22H105V23H95ZM112 22H113V23H112ZM133 22H138V23H133ZM35 23H38V24H35ZM70 23H80V24H70ZM96 23H104V24H96ZM111 23H114V24H111ZM131 23H137V24H131ZM69 24H79V25H69ZM95 24H103V25H95ZM110 24H115V25H110ZM130 24H135V25H130ZM67 25H77V26H67ZM93 25H102V26H93ZM109 25H115V26H109ZM129 25H134V26H129ZM66 26H76V27H66ZM92 26H101V27H92ZM109 26H116V27H109ZM127 26H133V27H127ZM65 27H75V28H65ZM91 27H100V28H91ZM108 27H116V28H108ZM126 27H132V28H126ZM64 28H73V29H64ZM90 28H99V29H90ZM107 28H117V29H107ZM125 28H131V29H125ZM62 29H72V30H62ZM89 29H98V30H89ZM106 29H118V30H106ZM123 29H130V30H123ZM61 30H70V31H61ZM88 30H96V31H88ZM105 30H118V31H105ZM122 30H128V31H122ZM59 31H69V32H59ZM87 31H95V32H87ZM104 31H119V32H104ZM120 31H127V32H120ZM58 32H67V33H58ZM86 32H94V33H86ZM103 32H126V33H103ZM56 33H65V34H56ZM84 33H93V34H84ZM104 33H124V34H104ZM55 34H63V35H55ZM83 34H92V35H83ZM105 34H123V35H105ZM53 35H61V36H53ZM82 35H90V36H82ZM106 35H122V36H106ZM51 36H59V37H51ZM81 36H89V37H81ZM107 36H121V37H107ZM50 37H57V38H50ZM79 37H88V38H79ZM106 37H119V38H106ZM48 38H55V39H48ZM78 38H86V39H78ZM105 38H118V39H105ZM45 39H52V40H45ZM77 39H85V40H77ZM104 39H117V40H104ZM24 40H25V41H24ZM43 40H49V41H43ZM76 40H84V41H76ZM103 40H116V41H103ZM120 40H121V41H120ZM23 41H24V42H23ZM41 41H46V42H41ZM74 41H82V42H74ZM102 41H114V42H102ZM119 41H122V42H119ZM22 42H24V43H22ZM39 42H42V43H39ZM73 42H81V43H73ZM101 42H113V43H101ZM118 42H122V43H118ZM21 43H23V44H21ZM71 43H80V44H71ZM100 43H112V44H100ZM116 43H122V44H116ZM20 44H22V45H20ZM70 44H78V45H70ZM99 44H110V45H99ZM115 44H122V45H115ZM19 45H21V46H19ZM69 45H77V46H69ZM97 45H109V46H97ZM114 45H122V46H114ZM18 46H20V47H18ZM67 46H75V47H67ZM96 46H107V47H96ZM112 46H122V47H112ZM17 47H19V48H17ZM65 47H74V48H65ZM95 47H106V48H95ZM111 47H122V48H111ZM16 48H18V49H16ZM64 48H72V49H64ZM94 48H104V49H94ZM110 48H123V49H110ZM15 49H18V50H15ZM62 49H70V50H62ZM93 49H103V50H93ZM109 49H123V50H109ZM14 50H17V51H14ZM61 50H69V51H61ZM91 50H101V51H91ZM107 50H123V51H107ZM13 51H16V52H13ZM59 51H67V52H59ZM90 51H100V52H90ZM106 51H123V52H106ZM12 52H15V53H12ZM57 52H65V53H57ZM88 52H99V53H88ZM11 53H15V54H11ZM55 53H64V54H55ZM87 53H97V54H87ZM53 54H62V55H53ZM85 54H96V55H85ZM105 52H123V56H105ZM10 54H14V56H10ZM51 55H60V56H51ZM83 55H94V56H83ZM9 56H13V57H9ZM49 56H58V57H49ZM82 56H93V57H82ZM8 57H12V58H8ZM47 57H55V58H47ZM80 57H91V58H80ZM106 56H122V59H106ZM45 58H53V59H45ZM78 58H89V59H78ZM7 58H12V60H7ZM42 59H50V60H42ZM76 59H88V60H76ZM106 59H121V60H106ZM6 60H11V61H6ZM39 60H46V61H39ZM74 60H86V61H74ZM104 60H119V61H104ZM38 61H41V62H38ZM72 61H85V62H72ZM103 61H117V62H103ZM5 61H11V63H5ZM70 62H83V63H70ZM102 62H116V63H102ZM4 63H10V64H4ZM68 63H82V64H68ZM100 63H114V64H100ZM66 64H80V65H66ZM99 64H112V65H99ZM3 64H10V66H3ZM64 65H79V66H64ZM97 65H110V66H97ZM61 66H77V67H61ZM95 66H108V67H95ZM119 66H120V67H119ZM2 66H10V68H2ZM59 67H75V68H59ZM94 67H106V68H94ZM118 67H120V68H118ZM1 68H10V69H1ZM57 68H74V69H57ZM92 68H104V69H92ZM117 68H120V69H117ZM54 69H72V70H54ZM91 69H102V70H91ZM115 69H119V70H115ZM1 69H11V71H1ZM52 70H70V71H52ZM89 70H100V71H89ZM114 70H119V71H114ZM0 71H12V72H0ZM49 71H68V72H49ZM87 71H98V72H87ZM113 71H119V72H113ZM0 72H13V73H0ZM46 72H66V73H46ZM86 72H96V73H86ZM112 72H118V73H112ZM0 73H15V74H0ZM42 73H64V74H42ZM84 73H94V74H84ZM110 73H118V74H110ZM0 74H17V75H0ZM37 74H62V75H37ZM82 74H92V75H82ZM109 74H117V75H109ZM0 75H21V76H0ZM32 75H60V76H32ZM81 75H90V76H81ZM108 75H117V76H108ZM0 76H58V77H0ZM79 76H88V77H79ZM106 76H115V77H106ZM0 77H56V78H0ZM77 77H86V78H77ZM105 77H114V78H105ZM1 78H54V79H1ZM76 78H83V79H76ZM103 78H113V79H103ZM1 79H51V80H1ZM74 79H81V80H74ZM102 79H111V80H102ZM2 80H49V81H2ZM72 80H79V81H72ZM100 80H110V81H100ZM2 81H46V82H2ZM70 81H76V82H70ZM99 81H108V82H99ZM3 82H43V83H3ZM69 82H72V83H69ZM97 82H106V83H97ZM5 83H40V84H5ZM95 83H105V84H95ZM7 84H36V85H7ZM93 84H103V85H93ZM9 85H33V86H9ZM92 85H100V86H92ZM14 86H26V87H14ZM89 86H98V87H89ZM87 87H95V88H87ZM85 88H92V89H85ZM104 88H106V89H104ZM82 89H88V90H82ZM102 89H105V90H102ZM100 90H104V91H100ZM98 91H103V92H98ZM96 92H101V93H96ZM93 93H100V94H93ZM91 94H99V95H91ZM88 95H97V96H88ZM85 96H96V97H85ZM83 97H94V98H83ZM80 98H92V99H80ZM77 99H89V100H77ZM74 100H86V101H74ZM73 101H84V102H73Z" /></clipPath></defs><g data-alpha-boundary-clip="true" clip-path="url(#source-alpha-boundary-clip)">
<path d="M0 0c48 0 96 0 146 0 0 34 0 67 0 102-48 0-96 0-146 0 0-34 0-67 0-102Z" fill="none" transform="translate(0,0)"/>
<path d="M0 0c0 0 1 0 1 0 0 29 0 57 0 87-48 0-96 0-146 0 0-8 0-16 0-24 2 2 5 4 7 6 17 6 38-2 54-9 19-10 38-23 55-36 1-1 2-2 3-3 9-6 18-13 26-21Z" fill="none" transform="translate(145,15)"/>
<path data-fill-layer-id="vtracer-fill-1-d2704b" d="M0 0c0 3 0 3-2 5-9 9-18 16-28 23-1 1-1 1-2 2-27 20-62 46-98 44-5-1-9-2-13-6-2-3-3-5-2-9 4-11 11-19 19-27 0 4-1 5-3 7-4 6-6 11-5 18 3 4 7 5 12 5 26 1 57-14 76-31 1-1 2-1 2-2 2-2 4-3 6-5-1-1-2-3-3-4 2-4 4-7 8-10 1 0 1 0 2 0 4 7 4 7 4 9 6-3 12-7 17-12 3-2 7-5 10-7Z" fill="#D2704B" transform="translate(145,13)" />
<path data-fill-layer-id="vtracer-fill-2-0192d8" d="M0 0c1 0 2 1 3 1 0 6 0 11 0 17-31 18-31 18-48 23-1 0-2-1-3-1 1 0 1-1 2-1 6-3 11-7 17-10 3-2 5-3 7-4 1-1 2-2 3-2 1-1 2-1 3-2 2-2 2-2 2-5 0-4 0-4 2-7 1 0 2-1 3-2 1 0 2-1 2-2 1-1 2-1 3-2 1-1 1-1 2-2 1 0 1-1 2-1Z" fill="#0192D8" transform="translate(119,41)" />
<path data-fill-layer-id="vtracer-fill-3-2b96bc" d="M0 0c4 1 7 4 10 7-9 19-41 37-60 43-3 1-6 1-9 1 3-2 7-4 11-5 16-8 30-20 44-32-1-1-2-3-3-4 2-4 4-7 7-10Z" fill="#2B96BC" transform="translate(99,10)" />
<path data-fill-layer-id="vtracer-fill-4-2e96ba" d="M0 0c6 1 11 2 16 5-4 12-18 21-28 27-8 4-15 7-23 8 2-2 4-3 7-5 10-5 25-14 30-24-3 0-5-1-8-1 1-4 3-7 6-10Z" fill="#2E96BA" transform="translate(79,1)" />
<path data-fill-layer-id="vtracer-fill-5-de6c24" d="M0 0c0 1 1 3 1 4 2 6 4 8 9 11 4 1 8 1 13 1 9 0 9 0 12 2-1 0-2 1-3 1 0 1 0 1 0 2-9 5-19 5-29 4-3-1-3-1-6-3 0-1-1-2-1-3-1 0-1 0-2 0-1-5-1-8 2-12 0-1 1-2 2-3 1-3 1-3 2-4Z" fill="#DE6C24" transform="translate(8,60)" />
<path data-fill-layer-id="vtracer-fill-6-bb7356" d="M0 0c0 3 0 3-2 5-27 25-27 25-35 26-3 1-3 1-7 4-1 0-3 1-4 2-1 0-3-1-4-1 5-4 9-8 14-12-1-1-2-3-3-4 2-4 4-7 8-10 1 0 1 0 2 0 4 7 4 7 4 9 6-3 12-7 17-12 3-2 7-5 10-7Z" fill="#BB7356" transform="translate(145,13)" />
<path data-fill-layer-id="vtracer-fill-7-3094b9" d="M0 0c-5 10-14 17-24 21-3 1-7 2-10 2 3-4 7-6 11-8 3-2 5-5 8-7-4 0-8 0-12 0 3-3 5-4 8-5 1 0 2-1 3-1 6-2 10-2 16-2Z" fill="#3094B9" transform="translate(72,0)" />
<path data-fill-layer-id="vtracer-fill-8-fd6a24" d="M0 0c1 0 1 0 2 0 0 2 1 5 1 7 1 0 2-1 3-1 0 1 0 1 0 2 1 0 2 0 3 0 0 1 1 3 1 4 3 0 6-1 9-2 1 0 1 0 8 1 1 0 2-1 3-1 2 0 5 0 7 0-1 0-1 1-2 1 0 1 0 1 0 2-10 2-20 4-31 2-2-2-2-2-4-6-1 0-2 0-3 0 1-7 1-7 3-9Z" fill="#FD6A24" transform="translate(5,68)" />
<path data-fill-layer-id="vtracer-fill-9-0292d6" d="M0 0c5 1 8 1 12 4-1 2-1 2-2 5-1 0-1 0-4 2 0 1 0 1 0 2-2 2-5 4-7 6-1 1-2 1-3 2-7 6-7 6-9 6 2-4 3-5 7-8 4-4 4-4 5-6 1 0 1 0 2 0 0-1 0-1 0-2 1 0 1 0 2 0 0-1-1-2-1-3-3-1-3-1-5-2 1-4 1-4 3-6Z" fill="#0292D6" transform="translate(80,3)" />
<path data-fill-layer-id="vtracer-fill-10-3190af" d="M0 0c2 3 2 3 4 7-1 5-4 8-8 11-4 1-7 2-10 3 1-1 2-2 2-2 3-3 3-3 5-6-1-1-2-2-3-3 2-4 5-10 10-10Z" fill="#3190AF" transform="translate(114,23)" />
<path data-fill-layer-id="vtracer-fill-11-3096b6" d="M0 0c0 0 0 0 1 2-3 10-11 14-20 18-11 5-11 5-17 3 1 0 2-1 3-1 10-5 18-9 26-16 1-1 2-1 2-2 2-1 3-3 5-4Z" fill="#3096B6" transform="translate(119,66)" />
<path data-fill-layer-id="vtracer-fill-12-d67854" d="M0 0c0 4-1 4-3 7-3 5-5 9-6 15-2-3-2-3-2-6-1 2-2 4-3 6-1 1-1 2-2 3-1 3-1 5-1 9 1 0 1 0 2 0 1 1 1 2 2 3 9 5 22 2 32 1-7 5-18 5-26 4-4-2-7-3-10-6-2-3-3-5-2-9 4-11 11-19 19-27Z" fill="#D67854" transform="translate(19,45)" />
<path data-fill-layer-id="vtracer-fill-13-da7244" d="M0 0c-2 1-5 2-7 3-1 1-3 1-4 2 1 1 2 2 3 3 1-1 3-1 4-2 4-1 4-1 7 0-2 1-5 2-7 3-1 0-3 1-4 1-4 2-7 3-11 4-1-1-1-1-2-2 1 0 3-1 4-1 0-1 0-1 0-2 1 0 1-1 2-1-4-1-9-1-13-1-1 0-1 0-5 0-1 0-2 0-3 0 0 0 0-1 0-1 1 0 1 0 3 0 10-1 19-3 28-6 3-1 3-1 5 0Z" fill="#DA7244" transform="translate(57,70)" />
<path data-fill-layer-id="vtracer-fill-14-3399bc" d="M0 0c1 0 1 1 2 1-1 1-2 1-2 2-3 2-3 2-5 4 1 0 2 0 3 0 0 1 0 1 0 2-4 2-7 3-11 5-1 0-2 1-3 1-5 3-9 5-15 5 4-4 9-6 13-9 6-3 12-7 18-11Z" fill="#3399BC" transform="translate(102,62)" />
<path data-fill-layer-id="vtracer-fill-15-0192d3" d="M0 0c3 1 5 2 6 5 0 3 0 3-2 5-4 4-9 8-13 11-1 0-1-1-2-1 1-1 2-2 4-3 2-2 2-2 3-4 0-4 0-4-1-8 1 0 1 0 2 0 1-1 1-3 2-4 0 0 1-1 1-1Z" fill="#0192D3" transform="translate(100,12)" />
<path data-fill-layer-id="vtracer-fill-16-e16827" d="M0 0c-3 5-3 5-7 6 0 0-1 0-2 0 0 1 0 1 0 2-4 1-8 3-12 4 0-1 0-2 0-3-1 0-2-1-3-1 1-1 3-1 4-2 3-1 5-2 8-4 4-3 7-4 12-2Z" fill="#E16827" transform="translate(69,67)" />
<path data-fill-layer-id="vtracer-fill-17-3197b9" d="M0 0c1 0 1 1 2 1-1 1-1 2-2 3 0 1 0 1 0 2-22 14-22 14-33 13 3-2 7-4 11-6 8-3 15-8 22-13Z" fill="#3197B9" transform="translate(73,42)" />
<path data-fill-layer-id="vtracer-fill-18-d86d2d" d="M0 0c1 1 1 1 2 2-3 4-7 6-11 9-1 1-3 1-4 2-12 7-12 7-14 7 0-1 0-1 0-2 1 0 2-1 3-1 3-2 3-2 5-5 0-1 0-1 0-2 1 0 2-1 2-1 6-3 12-6 17-9Z" fill="#D86D2D" transform="translate(87,55)" />
<path data-fill-layer-id="vtracer-fill-19-2995b8" d="M0 0c1 0 2 1 3 1 0 6 0 11 0 17-3 2-6 3-9 5 0 0 0 0-2 2-3 1-5 2-7 3-1 0-1-1-2-1 1-1 2-2 3-3 1 0 2 0 3 0 0-1 1-2 1-3 1 0 1 0 2 0 5-2 5-2 8-4 1-5 1-9 1-14-2 1-4 3-6 4-1 1-2 1-3 2-3 3-3 5-3 9-1 0-1 1-2 1-1-3-1-3-1-7 3-3 6-6 10-9 1-1 1-1 2-2 1 0 1-1 2-1Z" fill="#2995B8" transform="translate(119,41)" />
<path data-fill-layer-id="vtracer-fill-20-3195b7" d="M0 0c1 0 1 1 2 1-8 6-16 11-26 11-1 0-2 0-3 0 2-4 6-4 10-5 2-1 4-2 5-2 1 0 1 0 3-1 2-1 4-2 6-3 1 0 2-1 3-1Z" fill="#3195B7" transform="translate(101,90)" />
<path data-fill-layer-id="vtracer-fill-21-2c94b8" d="M0 0c4 1 7 4 10 7-2 4-5 7-8 10-1 1-3 2-4 3-2 3-5 5-8 7-1 0-1-1-2-1 6-5 12-11 18-16 0-2 0-2-1-5-1-1-3-1-4-2 0 0 0 0-2 2-3 3-3 3-6 5 2-4 4-7 7-10Z" fill="#2C94B8" transform="translate(99,10)" />
<path data-fill-layer-id="vtracer-fill-22-dd6124" d="M0 0c4 0 8 0 12 0 2 0 3 0 4 0 1 0 1 0 3 0 1 0 2 0 3 0 3 0 3 0 5 2-5 1-10 2-16 2-4-1-4-1-7 1-3 0-3 0-6 0 1 0 1-1 2-1 0-1 0-3 0-4Z" fill="#DD6124" transform="translate(15,76)" />
<path data-fill-layer-id="vtracer-fill-23-0492d2" d="M0 0c2 0 3 0 5 0-2 4-4 6-7 9-1 0-1 0-2 0 0 1 0 1 0 2-2 1-3 1-5 2 1-1 1-3 2-4 0-1 1-3 1-4-1-1-1-1-2-2 3-1 5-1 8-1 0-1 0-1 0-2Z" fill="#0492D2" transform="translate(64,1)" />
<path data-fill-layer-id="vtracer-fill-24-9b6d62" d="M0 0c1 0 1 0 2 0-1 1-1 3-2 4 0 1 0 2 0 3-4 2-4 2-6 2-3 1-3 1-7 4-1 0-1 0-4 2-1 0-3-1-4-1 5-4 9-7 15-9 3-1 4-2 6-5Z" fill="#9B6D62" transform="translate(114,35)" />
<path data-fill-layer-id="vtracer-fill-25-3094b6" d="M0 0c5 1 5 1 7 2-3 10-14 18-22 23-1 0-1 0-2 0 0-1 0-1 0-2 2-1 4-3 6-4 2-2 2-2 5-5 1-1 1-1 2-2 1 0 1 0 2 0 0-1 0-1 0-2 2-2 3-3 5-5 0-1 0-1 0-2-1-1-2-2-3-3Z" fill="#3094B6" transform="translate(88,4)" />
<path data-fill-layer-id="vtracer-fill-26-d17955" d="M0 0c1 1 1 1 2 2-3 2-6 4-9 6-2 1-4 2-6 3-2 1-3 1-4 2-1 0-3 1-4 2-3 1-3 1-7 0 1 0 2-1 3-1 9-4 17-9 25-14ZM1 4c1 0 2 1 3 1-2 2-2 2-5 3-1 0-1-1-2-1 2-2 2-2 4-3Z" fill="#D17955" transform="translate(90,51)" />
<path data-fill-layer-id="vtracer-fill-27-fb5d24" d="M0 0c1 0 1 0 2 0 0 2 1 5 1 7 1 0 2-1 3-1 1 3 1 3 0 7 1 0 1 1 2 1-2 0-5-1-7-1-1-2-1-3-2-5 0 0 0 0-2 1 1-7 1-7 3-9Z" fill="#FB5D24" transform="translate(5,68)" />
<path data-fill-layer-id="vtracer-fill-28-359dc1" d="M0 0c0 0 0 1 0 1-3 0-5 0-8 0 0 1 0 1 0 2-2 0-4 1-6 1 0 1 1 3 1 4-5 0-9 0-14 0 3-3 5-4 8-5 1 0 2-1 3-1 6-2 10-2 16-2Z" fill="#359DC1" transform="translate(72,0)" />
<path data-fill-layer-id="vtracer-fill-29-0392d6" d="M0 0c1 0 2 0 3 0 2 4 2 4 2 7-3 1-5 2-8 3-1-1-1-2-2-3 4-6 4-6 5-7Z" fill="#0392D6" transform="translate(111,26)" />
<path data-fill-layer-id="vtracer-fill-30-db6724" d="M0 0c3 2 4 4 5 7-1 0-3-1-4-1 0-1-1-2-1-3-1 0-1-1-2-1 1 0 1 0 2 0 0-1 0-1 0-2ZM30 5c1 1 1 1 2 2-8 2-16 3-25 2-1-1-1-1-2-2 1 0 2 0 3 0 7 0 14 0 21-1 0 0 1-1 1-1Z" fill="#DB6724" transform="translate(4,76)" />
<path data-fill-layer-id="vtracer-fill-31-3595b4" d="M0 0c1 0 1 1 2 1-1 4-1 4-3 5-6 3-10 5-16 5 4-3 7-5 11-8 1 0 2-1 3-2 1 0 1 0 3-1Z" fill="#3595B4" transform="translate(88,71)" />
<path data-fill-layer-id="vtracer-fill-32-be7e5e" d="M0 0c0 3 0 3-3 6-1 1-2 2-3 3-1 1-3 2-4 3-3 3-3 3-7 3 2-5 5-7 10-10 0 0 1-1 2-1 2-2 3-3 5-4Z" fill="#BE7E5E" transform="translate(145,13)" />
<path data-fill-layer-id="vtracer-fill-33-3794b6" d="M0 0c1 0 1 1 2 1 0 1-1 2-1 3-3 1-3 1-7 3-1 0-2 1-3 1-4 1-6 1-9 1 3-2 7-4 11-6 0 0 0 0 4-2 1 0 2-1 3-1Z" fill="#3794B6" transform="translate(58,52)" />
<path data-fill-layer-id="vtracer-fill-34-3597bb" d="M0 0c1 0 2 1 3 1 0 1 0 2 0 3 0 0 0 0-3 0-4 1-7 3-10 7-1 4-1 4-1 7-1 0-1 1-2 1-1-3-1-3-1-7 3-3 6-6 10-9 1-1 1-1 2-2 1 0 1-1 2-1Z" fill="#3597BB" transform="translate(119,41)" />
<path data-fill-layer-id="vtracer-fill-35-3799bb" d="M0 0c3 1 7 1 10 2-1 1-1 1-2 2-4 0-4 0-7-1-1 2-2 3-3 5 1 0 1 1 2 1-1 1-1 1-4 1 0 0-1 0-2 0 1-4 3-7 6-10Z" fill="#3799BB" transform="translate(79,1)" />
<path data-fill-layer-id="vtracer-fill-36-d76d37" d="M0 0c1 1 1 1 5 4 2 2 2 2 6 4-5 1-8 1-13 0 0-2 0-3 0-5 1 0 1 0 2 0 0-1 0-2 0-3Z" fill="#D76D37" transform="translate(9,68)" />
<path data-fill-layer-id="vtracer-fill-37-ba806a" d="M0 0c0 4-1 5-3 8 0 0-1 1-1 2-2 2-2 2-5 5-1 0-1-1-2-1 2-4 4-6 7-9 0-1 1-2 2-3 1-1 1-1 2-2Z" fill="#BA806A" transform="translate(19,45)" />
<path data-fill-layer-id="vtracer-fill-38-dd6724" d="M0 0c0 0 0 1 0 1-6 1-12 2-18 1 0-1 0-1 0-2 2 0 4 0 6-1 1 0 1 0 4 0 3 0 5 0 8 1Z" fill="#DD6724" transform="translate(42,77)" />
<path data-fill-layer-id="vtracer-fill-39-3297b6" d="M0 0c2 2 2 2 3 5 0 1-1 3-1 4-1-2-1-4-2-6-3 2-5 3-8 6-1 0-1-1-2-1 1-1 3-3 4-4 0 0 0 0 2-2 2-2 2-2 4-2Z" fill="#3297B6" transform="translate(114,23)" />
<path data-fill-layer-id="vtracer-fill-40-3395b4" d="M0 0c1 0 1 0 5 2 0 1 0 2 0 3-1-1-3-1-4-2 0 0 0 0-2 2-3 3-3 3-6 5 2-4 4-7 7-10Z" fill="#3395B4" transform="translate(99,10)" />
<path data-fill-layer-id="vtracer-fill-41-d47551" d="M0 0c1 0 2 1 3 1-2 2-2 2-5 3-1 0-1-1-2-1 2-2 2-2 4-3ZM-8 4c1 0 3 1 4 1-1 1-3 2-4 3-1 0-1 0-3 1-2 1-2 1-4 1 0-1 0-1 0-2 1 0 2-1 3-1 3-2 3-2 4-3Z" fill="#D47551" transform="translate(75,65)" />
<path data-fill-layer-id="vtracer-fill-42-2895bb" d="M0 0c1 0 1 1 2 1 0 2 0 2-1 5-3 1-3 1-5 2 0-4 2-5 4-8Z" fill="#2895BB" transform="translate(77,39)" />
<path data-fill-layer-id="vtracer-fill-43-1492b6" d="M-4 4c0 1 1 2 1 3-2 2-4 2-7 3 1-4 3-4 6-6Z" fill="#1492B6" transform="translate(106,60)" />
<path data-fill-layer-id="vtracer-fill-44-5497b1" d="M0 0c1 0 1 1 2 1 0 1-1 2-1 3-5 2-7 2-12 1 2-1 4-2 5-3 1 0 2-1 3-1 1 0 2-1 3-1Z" fill="#5497B1" transform="translate(94,84)" />
<path data-fill-layer-id="vtracer-fill-45-d37453" d="M0 0c1 1 1 1 2 2-1 1-3 2-4 3 0-1-1-2-1-3 1-1 2-1 3-2ZM1 4c1 0 2 1 3 1-2 2-2 2-5 3-1 0-1-1-2-1 2-2 2-2 4-3Z" fill="#D37453" transform="translate(90,51)" />
<path data-fill-layer-id="vtracer-fill-46-db6324" d="M0 0c3 2 4 4 5 7-1 0-3-1-4-1 0-1-1-2-1-3-1 0-1-1-2-1 1 0 1 0 2 0 0-1 0-1 0-2Z" fill="#DB6324" transform="translate(4,76)" />
<path data-fill-layer-id="vtracer-fill-47-2192b6" d="M0 0c1 0 3 0 4 0 0 1 0 1 0 2-1 1-3 2-4 3-1 0-1 0-3 1-1 0-1 1-2 1-1 0-1-1-2-1 1-1 2-2 3-3 1 0 2 0 3 0 0-1 1-2 1-3Z" fill="#2192B6" transform="translate(109,62)" />
<path data-fill-layer-id="vtracer-fill-48-ca714d" d="M0 0c-2 4-3 5-7 7 0-3 0-3 2-5 2-2 2-2 5-2Z" fill="#CA714D" transform="translate(130,27)" />
<path data-fill-layer-id="vtracer-fill-49-648290" d="M0 0c-4 3-8 4-12 5 4-5 4-5 8-6 2 0 2 0 4 1Z" fill="#648290" transform="translate(112,39)" />
<path data-fill-layer-id="vtracer-fill-40-3395b4" d="M0 0c0 1 0 2 0 3-2 2-5 4-7 6-1 0-1-1-2-1 3-3 6-5 9-8Z" fill="#3395B4" transform="translate(96,28)" />
<path data-fill-layer-id="vtracer-fill-50-2a95b6" d="M0 0c2 2 2 2 3 4 0 1-1 3-1 4 0 0 0 0-2 1 0-1 1-3 1-4-1-1-1-3-2-4 0 0 1-1 1-1Z" fill="#2A95B6" transform="translate(94,18)" />
<path data-fill-layer-id="vtracer-fill-51-0592d3" d="M0 0c-2 4-3 5-6 7-1 0-1 0-2 0 3-7 3-7 8-7Z" fill="#0592D3" transform="translate(75,23)" />
<path data-fill-layer-id="vtracer-fill-52-599aa9" d="M0 0c-4 1-8 2-12 2 7-5 7-5 12-2Z" fill="#599AA9" transform="translate(52,59)" />
<path data-fill-layer-id="vtracer-fill-53-d96929" d="M0 0c1 0 3 1 4 1-2 3-2 3-5 4-1 0-2 0-3 0 1-2 3-3 4-5Z" fill="#D96929" transform="translate(93,51)" />
<path data-fill-layer-id="vtracer-fill-54-a46e5c" d="M0 0c1 0 1 0 2 0-1 1-1 3-2 4 0 1 0 2 0 3-1 0-2-1-3-1 2-5 2-5 3-6Z" fill="#A46E5C" transform="translate(114,35)" />
<path data-fill-layer-id="vtracer-fill-55-2694ca" d="M0 0c3 0 3 0 5 0-2 3-2 3-5 5-1 0-2 0-3 0 1-2 1-2 3-5Z" fill="#2694CA" transform="translate(91,69)" />
<path data-fill-layer-id="vtracer-fill-56-48a6c3" d="M0 0c0 1 1 1 1 2-3 0-5 0-8 0 2-3 4-3 7-2Z" fill="#48A6C3" transform="translate(81,100)" />
<path data-fill-layer-id="vtracer-fill-57-558f9e" d="M0 0c1 0 2 1 3 1-3 3-5 3-9 3 2-2 2-2 6-4Z" fill="#558F9E" transform="translate(50,37)" />
<path data-fill-layer-id="vtracer-fill-58-3897bb" d="M0 0c0 1 1 1 1 2 1 0 1 1 2 1-1 1-1 1-4 1 0 0 0 0-2 0 0-1 0-1 0-2 1-1 2-1 3-2Z" fill="#3897BB" transform="translate(76,7)" />
<path data-fill-layer-id="vtracer-fill-59-3a9ab8" d="M0 0c1 0 2 1 3 1 0 1 0 2 0 3-1 0-3-1-4-1 0-1 1-2 1-3Z" fill="#3A9AB8" transform="translate(119,41)" />
<path data-fill-layer-id="vtracer-fill-60-5294a7" d="M0 0c1 0 1 1 2 1 0 1 0 1-3 3-1-1-3-1-4-2 2-1 2-1 5-2Z" fill="#5294A7" transform="translate(101,90)" />
<path data-fill-layer-id="vtracer-fill-61-0692d4" d="M0 0c1 0 2 1 3 1-1 1-1 1-5 3 0-1 0-2 0-3 1 0 1-1 2-1Z" fill="#0692D4" transform="translate(99,66)" />
<path data-fill-layer-id="vtracer-fill-62-db6424" d="M0 0c1 1 1 1 2 2-1 1-1 1-2 2-1 0-2 0-3 0 0-1 1-2 1-3 1 0 1-1 2-1Z" fill="#DB6424" transform="translate(87,55)" />
<path data-fill-layer-id="vtracer-fill-63-3f9bb9" d="M0 0c0 1 1 1 1 2 0 1-1 1-1 2-1 0-3 0-4 0 0-1 0-1 0-2 1-1 3-1 4-2Z" fill="#3F9BB9" transform="translate(54,54)" />
<path data-fill-layer-id="vtracer-fill-64-d47338" d="M0 0c2 0 3 1 5 1-1 0-1 0-4 2-1-1-1-1-2-2 0 0 1-1 1-1Z" fill="#D47338" transform="translate(37,81)" />
<path data-fill-layer-id="vtracer-fill-65-ff4c24" d="M0 0c1 1 1 1 2 2 0 0 0 0-3 2 0-1 1-3 1-4Z" fill="#FF4C24" transform="translate(8,75)" />
<path data-fill-layer-id="vtracer-fill-66-3299bd" d="M0 0c1 0 1 0 2 0 0 1-1 2-1 3-1 0-3 1-4 1 1-2 1-2 3-4Z" fill="#3299BD" transform="translate(105,65)" />
<path data-fill-layer-id="vtracer-fill-67-2f95b9" d="M0 0c1 1 2 3 3 4-1 0-2 0-3 0 0-1 0-3 0-4Z" fill="#2F95B9" transform="translate(94,18)" />
<path data-fill-layer-id="vtracer-fill-68-c27551" d="M0 0c0 1 1 1 1 2-1 1-2 2-3 3 0-3 0-3 2-5Z" fill="#C27551" transform="translate(12,55)" />
<path data-fill-layer-id="vtracer-fill-69-be6d48" d="M0 0c1 0 2 1 3 1 0 1-1 1-1 2-1 0-2-1-3-1 0-1 1-1 1-2Z" fill="#BE6D48" transform="translate(109,40)" />
<path data-fill-layer-id="vtracer-fill-70-389eba" d="M0 0c1 0 1 0 4 2 0 1-1 1-1 2-1-1-2-1-3-2 0-1 0-1 0-2Z" fill="#389EBA" transform="translate(101,11)" />
<path data-fill-layer-id="vtracer-fill-71-0092ba" d="" fill="#0092BA" transform="translate(77,19)" />
</g></svg>